<svg xmlns="http://www.w3.org/2000/svg" viewBox="-64 -64 128 128">
  <g fill="black">
    <path d="M0 0 L0 -52 C5 -58 20 -62 32 -56 C42 -50 46 -38 43 -28 C40 -18 32 -8 24 -4 Z"/>
    <path d="M0 0 L0 -52 C5 -58 20 -62 32 -56 C42 -50 46 -38 43 -28 C40 -18 32 -8 24 -4 Z" transform="rotate(60)"/>
    <path d="M0 0 L0 -52 C5 -58 20 -62 32 -56 C42 -50 46 -38 43 -28 C40 -18 32 -8 24 -4 Z" transform="rotate(120)"/>
    <path d="M0 0 L0 -52 C5 -58 20 -62 32 -56 C42 -50 46 -38 43 -28 C40 -18 32 -8 24 -4 Z" transform="rotate(180)"/>
    <path d="M0 0 L0 -52 C5 -58 20 -62 32 -56 C42 -50 46 -38 43 -28 C40 -18 32 -8 24 -4 Z" transform="rotate(240)"/>
    <path d="M0 0 L0 -52 C5 -58 20 -62 32 -56 C42 -50 46 -38 43 -28 C40 -18 32 -8 24 -4 Z" transform="rotate(300)"/>
  </g>
</svg>
